<?xml version="1.0" standalone="no"?>
<!DOCTYPE svg PUBLIC "-//W3C//DTD SVG 20010904//EN"
 "http://www.w3.org/TR/2001/REC-SVG-20010904/DTD/svg10.dtd">
<svg version="1.0" xmlns="http://www.w3.org/2000/svg"
 width="16.000000pt" height="16.000000pt" viewBox="0 0 16.000000 16.000000"
 preserveAspectRatio="xMidYMid meet">
<metadata>
Created by potrace 1.11, written by Peter Selinger 2001-2013
</metadata>
<g transform="translate(0.000000,16.000000) scale(0.003865,-0.003865)"
fill="#000000" stroke="none">
<path d="M2454 3506 c-95 -18 -137 -32 -207 -69 -169 -88 -273 -288 -307 -586
-8 -65 -10 -338 -8 -836 4 -724 5 -742 27 -839 82 -364 253 -523 591 -551 265
-22 454 75 553 283 16 35 31 62 32 60 2 -2 9 -53 15 -113 6 -61 13 -129 16
-152 l5 -43 85 0 84 0 0 685 0 685 -330 0 -330 0 0 -100 0 -100 210 0 210 0 0
-169 c0 -423 -44 -619 -164 -728 -78 -71 -133 -88 -286 -88 -199 0 -299 47
-367 171 -81 149 -93 283 -93 1048 0 600 9 827 35 931 58 226 203 326 455 312
287 -16 378 -143 396 -549 l7 -148 124 0 123 0 0 85 c0 115 -17 263 -41 359
-62 245 -190 381 -414 442 -82 22 -327 28 -421 10z"/>
<path d="M1218 2228 c-3 -1162 -5 -1267 -20 -1313 -41 -119 -119 -163 -300
-172 l-108 -6 0 -100 0 -100 158 6 c86 3 180 12 207 20 182 51 262 139 308
341 20 89 21 117 24 1339 l4 1247 -135 0 -135 0 -3 -1262z"/>
</g>
</svg>
